<svg xmlns="http://www.w3.org/2000/svg" version="1.1" xmlns:xlink="http://www.w3.org/1999/xlink" xmlns:svgjs="http://svgjs.dev/svgjs" width="765" height="625" viewBox="0 0 448.56000366210935 300" class="svg-animations " style="background-color: rgb(0, 78, 255);"><svg viewBox="0 0 135.00657653808594 140.00709533691406" width="100" height="100" style="fill: rgb(255, 0, 0);" x="37.38000030517577" y="100"><svg width="135" height="135" viewBox="0 0 135 135" xmlns="http://www.w3.org/2000/svg">
	<g clip-path="url(#clip0)">
	<path d="M87.361 3.51701L67.4997 23.3641L47.6527 3.51701C42.9685 -1.16713 35.3087 -1.16713 30.6388 3.51701C25.9547 8.20115 25.9547 15.8609 30.6388 20.5308L58.9999 48.8919C63.6841 53.5761 71.3439 53.5761 76.0138 48.8919L104.375 20.5308C109.059 15.8467 109.059 8.18691 104.375 3.51701C99.6907 -1.15289 92.0452 -1.16713 87.361 3.51701Z"/>
	<path d="M47.6527 131.498L67.514 111.637L87.3754 131.498C92.0595 136.182 99.7193 136.182 104.389 131.498C109.073 126.814 109.073 119.154 104.389 114.484L76.0138 86.1088C71.3297 81.4247 63.6699 81.4247 59 86.1088L30.6247 114.47C25.9405 119.154 25.9405 126.814 30.6247 131.484C35.3088 136.154 42.9686 136.182 47.6527 131.498Z"/>
	<path d="M131.497 87.3619L111.636 67.5005L131.497 47.6392C136.181 42.9551 136.181 35.2953 131.497 30.6254C126.813 25.9413 119.153 25.9413 114.483 30.6254L86.1081 58.9865C81.4239 63.6707 81.4239 71.3304 86.1081 76.0003L114.469 104.376C119.153 109.06 126.813 109.06 131.483 104.376C136.153 99.6915 136.181 92.046 131.497 87.3619Z"/>
	<path d="M3.51652 47.6535L23.3778 67.5148L3.51652 87.3619C-1.16762 92.046 -1.16762 99.7058 3.51652 104.376C8.20066 109.06 15.8604 109.06 20.5303 104.376L48.8914 76.0146C53.5756 71.3304 53.5756 63.6707 48.8914 59.0007L20.5303 30.6254C15.8462 25.9413 8.18642 25.9413 3.51652 30.6254C-1.15338 35.3095 -1.16762 42.9693 3.51652 47.6535Z"/>
	</g>
	</svg></svg><svg style="fill: rgb(255, 254, 0);" x="147.38000030517577" y="123.45000076293945"><path d="M20.11 42L1.98 42L1.98-2.69L10.92-2.69L10.92 34.38L20.11 34.38L20.11 42ZM28.72 13.46L24.25 13.46L21.71-2.69L30.65-2.69L28.72 13.46ZM40.55 42.41L40.55 42.41Q37.38 42.41 35.71 40.93Q34.05 39.46 33.44 36.90Q32.83 34.33 32.83 31.08L32.83 31.08Q32.83 27.60 33.52 25.38Q34.20 23.16 35.86 21.74Q37.53 20.32 40.45 19.33L40.45 19.33L46.08 17.40L46.08 13.49Q46.08 10.41 44.08 10.41L44.08 10.41Q42.25 10.41 42.25 12.90L42.25 12.90L42.25 15.19L33.41 15.19Q33.39 14.98 33.39 14.67Q33.39 14.35 33.39 13.94L33.39 13.94Q33.39 8.26 36.07 5.88Q38.75 3.51 44.56 3.51L44.56 3.51Q47.61 3.51 50.02 4.59Q52.43 5.67 53.84 7.77Q55.25 9.88 55.25 12.98L55.25 12.98L55.25 42L46.21 42L46.21 37.48Q45.55 39.87 44.03 41.14Q42.50 42.41 40.55 42.41ZM44.13 35.35L44.13 35.35Q45.25 35.35 45.65 34.41Q46.06 33.47 46.06 32.38L46.06 32.38L46.06 21.76Q44.18 22.53 43.14 23.68Q42.10 24.84 42.10 27.07L42.10 27.07L42.10 31.97Q42.10 35.35 44.13 35.35ZM69.19 42.41L69.19 42.41Q57.92 42.41 57.92 30.98L57.92 30.98L57.92 27.96L67.06 27.96L67.06 32.43Q67.06 33.72 67.56 34.46Q68.07 35.20 69.19 35.20L69.19 35.20Q71.17 35.20 71.17 32.22L71.17 32.22Q71.17 29.74 70.13 28.50Q69.09 27.27 67.59 26.13L67.59 26.13L62.74 22.40Q60.46 20.62 59.26 18.64Q58.07 16.66 58.07 13.13L58.07 13.13Q58.07 9.86 59.63 7.72Q61.19 5.59 63.77 4.55Q66.35 3.51 69.34 3.51L69.34 3.51Q80.41 3.51 80.41 14.55L80.41 14.55L80.41 15.26L71.02 15.26L71.02 13.82Q71.02 12.67 70.62 11.61Q70.23 10.54 69.09 10.54L69.09 10.54Q67.16 10.54 67.16 12.57L67.16 12.57Q67.16 14.63 68.78 15.80L68.78 15.80L74.42 19.91Q77.06 21.81 78.85 24.43Q80.64 27.04 80.64 31.39L80.64 31.39Q80.64 36.77 77.58 39.59Q74.52 42.41 69.19 42.41ZM93.87 42.41L93.87 42.41Q82.60 42.41 82.60 30.98L82.60 30.98L82.60 27.96L91.74 27.96L91.74 32.43Q91.74 33.72 92.24 34.46Q92.75 35.20 93.87 35.20L93.87 35.20Q95.85 35.20 95.85 32.22L95.85 32.22Q95.85 29.74 94.81 28.50Q93.77 27.27 92.27 26.13L92.27 26.13L87.42 22.40Q85.13 20.62 83.94 18.64Q82.75 16.66 82.75 13.13L82.75 13.13Q82.75 9.86 84.31 7.72Q85.87 5.59 88.45 4.55Q91.03 3.51 94.02 3.51L94.02 3.51Q105.09 3.51 105.09 14.55L105.09 14.55L105.09 15.26L95.70 15.26L95.70 13.82Q95.70 12.67 95.30 11.61Q94.91 10.54 93.77 10.54L93.77 10.54Q91.84 10.54 91.84 12.57L91.84 12.57Q91.84 14.63 93.46 15.80L93.46 15.80L99.10 19.91Q101.74 21.81 103.53 24.43Q105.32 27.04 105.32 31.39L105.32 31.39Q105.32 36.77 102.26 39.59Q99.20 42.41 93.87 42.41ZM115.45 42.41L115.45 42.41Q112.40 42.41 110.79 41.14Q109.18 39.87 108.60 37.59Q108.01 35.32 108.01 32.28L108.01 32.28L108.01 3.91L117.15 3.91L117.15 31.21Q117.15 33.49 117.51 34.40Q117.86 35.30 119.18 35.30L119.18 35.30Q120.61 35.30 120.97 34.03Q121.34 32.76 121.34 30.75L121.34 30.75L121.34 3.91L130.41 3.91L130.41 42L121.32 42L121.32 37.94Q120.45 40.12 119.25 41.26Q118.04 42.41 115.45 42.41ZM143.30 42L134.06 42L134.06 3.91L143.30 3.91L143.30 8.15Q143.96 5.95 145.64 4.70Q147.32 3.46 149.86 3.46L149.86 3.46L149.86 11.05Q148.74 11.05 147.19 11.29Q145.64 11.53 144.47 11.95Q143.30 12.37 143.30 12.88L143.30 12.88L143.30 42ZM159.02 42.41L159.02 42.41Q155.85 42.41 154.18 40.93Q152.52 39.46 151.91 36.90Q151.30 34.33 151.30 31.08L151.30 31.08Q151.30 27.60 151.99 25.38Q152.67 23.16 154.34 21.74Q156 20.32 158.92 19.33L158.92 19.33L164.56 17.40L164.56 13.49Q164.56 10.41 162.55 10.41L162.55 10.41Q160.72 10.41 160.72 12.90L160.72 12.90L160.72 15.19L151.89 15.19Q151.86 14.98 151.86 14.67Q151.86 14.35 151.86 13.94L151.86 13.94Q151.86 8.26 154.54 5.88Q157.22 3.51 163.03 3.51L163.03 3.51Q166.08 3.51 168.49 4.59Q170.90 5.67 172.31 7.77Q173.72 9.88 173.72 12.98L173.72 12.98L173.72 42L164.68 42L164.68 37.48Q164.02 39.87 162.50 41.14Q160.98 42.41 159.02 42.41ZM162.60 35.35L162.60 35.35Q163.72 35.35 164.13 34.41Q164.53 33.47 164.53 32.38L164.53 32.38L164.53 21.76Q162.65 22.53 161.61 23.68Q160.57 24.84 160.57 27.07L160.57 27.07L160.57 31.97Q160.57 35.35 162.60 35.35ZM186.32 42L177.23 42L177.23 3.91L186.32 3.91L186.32 8.76Q186.82 6.58 188.21 5.04Q189.59 3.51 192.05 3.51L192.05 3.51Q196.02 3.51 197.81 5.95Q199.60 8.38 199.60 12.62L199.60 12.62L199.60 42L190.63 42L190.63 13.56Q190.63 12.45 190.18 11.49Q189.72 10.54 188.60 10.54L188.60 10.54Q187.56 10.54 187.07 11.26Q186.57 11.99 186.44 13.07Q186.32 14.15 186.32 15.21L186.32 15.21L186.32 42ZM214.60 42.41L214.60 42.41Q208.20 42.41 205.52 39.13Q202.85 35.86 202.85 29.51L202.85 29.51L202.85 17.78Q202.85 13.00 203.86 9.83Q204.88 6.66 207.42 5.08Q209.96 3.51 214.47 3.51L214.47 3.51Q217.62 3.51 220.12 4.63Q222.63 5.74 224.07 7.90Q225.52 10.06 225.52 13.18L225.52 13.18L225.52 19.00L216.25 19.00L216.25 13.66Q216.25 12.34 215.87 11.44Q215.49 10.54 214.22 10.54L214.22 10.54Q211.99 10.54 211.99 13.71L211.99 13.71L211.99 32.17Q211.99 33.34 212.49 34.32Q213.00 35.30 214.17 35.30L214.17 35.30Q215.36 35.30 215.83 34.34Q216.30 33.39 216.30 32.12L216.30 32.12L216.30 25.72L225.52 25.72L225.52 32.38Q225.52 35.53 224.11 37.77Q222.70 40.02 220.24 41.21Q217.78 42.41 214.60 42.41ZM239.36 42.41L239.36 42.41Q235.29 42.41 232.88 40.88Q230.47 39.36 229.43 36.49Q228.39 33.62 228.39 29.58L228.39 29.58L228.39 14.27Q228.39 8.97 231.44 6.24Q234.48 3.51 239.81 3.51L239.81 3.51Q250.78 3.51 250.78 14.27L250.78 14.27L250.78 17.04Q250.78 22.07 250.68 23.79L250.68 23.79L237.48 23.79L237.48 31.16Q237.48 32.17 237.61 33.15Q237.73 34.13 238.18 34.76Q238.62 35.40 239.61 35.40L239.61 35.40Q241.03 35.40 241.39 34.17Q241.74 32.94 241.74 30.96L241.74 30.96L241.74 27.30L250.78 27.30L250.78 29.46Q250.78 33.72 249.73 36.60Q248.68 39.49 246.17 40.95Q243.67 42.41 239.36 42.41ZM237.43 14.15L237.43 19.28L241.74 19.28L241.74 14.15Q241.74 12.09 241.24 11.19Q240.73 10.29 239.71 10.29L239.71 10.29Q238.62 10.29 238.02 11.15Q237.43 12.01 237.43 14.15L237.43 14.15Z"/></svg><svg style="fill: rgb(255, 230, 0);" x="194.59000701904296" y="176.54999923706055"><path d="M6.98 21L0.99 21L0.99-1.34L7.13-1.34Q9.55-1.34 10.77-0.00Q11.98 1.33 11.98 3.91L11.98 3.91L11.98 14.37Q11.98 17.55 10.87 19.27Q9.76 21 6.98 21L6.98 21ZM5.48 2.57L5.48 17.05L6.26 17.05Q7.49 17.05 7.49 15.86L7.49 15.86L7.49 4.33Q7.49 3.21 7.19 2.89Q6.89 2.57 5.98 2.57L5.98 2.57L5.48 2.57ZM17.41 21.20L17.41 21.20Q15.88 21.20 15.08 20.57Q14.27 19.93 13.98 18.80Q13.69 17.66 13.69 16.14L13.69 16.14L13.69 1.96L18.26 1.96L18.26 15.60Q18.26 16.75 18.43 17.20Q18.61 17.65 19.27 17.65L19.27 17.65Q19.98 17.65 20.17 17.01Q20.35 16.38 20.35 15.38L20.35 15.38L20.35 1.96L24.88 1.96L24.88 21L20.34 21L20.34 18.97Q19.91 20.06 19.30 20.63Q18.70 21.20 17.41 21.20ZM37.43 21L32.80 21L32.80 1.96L37.43 1.96L37.43 4.08Q37.76 2.97 38.59 2.35Q39.43 1.73 40.70 1.73L40.70 1.73L40.70 5.52Q40.14 5.52 39.37 5.65Q38.59 5.77 38.01 5.98Q37.43 6.18 37.43 6.44L37.43 6.44L37.43 21ZM47.15 21.20L47.15 21.20Q45.12 21.20 43.91 20.44Q42.71 19.68 42.19 18.25Q41.67 16.81 41.67 14.79L41.67 14.79L41.67 7.14Q41.67 4.48 43.19 3.12Q44.71 1.75 47.38 1.75L47.38 1.75Q52.86 1.75 52.86 7.14L52.86 7.14L52.86 8.52Q52.86 11.03 52.81 11.90L52.81 11.90L46.21 11.90L46.21 15.58Q46.21 16.09 46.27 16.58Q46.34 17.06 46.56 17.38Q46.78 17.70 47.28 17.70L47.28 17.70Q47.99 17.70 48.17 17.08Q48.34 16.47 48.34 15.48L48.34 15.48L48.34 13.65L52.86 13.65L52.86 14.73Q52.86 16.86 52.34 18.30Q51.81 19.74 50.56 20.47Q49.31 21.20 47.15 21.20ZM46.19 7.07L46.19 9.64L48.34 9.64L48.34 7.07Q48.34 6.04 48.09 5.59Q47.84 5.14 47.33 5.14L47.33 5.14Q46.78 5.14 46.48 5.58Q46.19 6.01 46.19 7.07L46.19 7.07ZM50.40 0.09L44.37 1.28L44.37-1.55L50.40-4.31L50.40 0.09ZM57.98 21.20L57.98 21.20Q56.39 21.20 55.56 20.47Q54.73 19.73 54.42 18.45Q54.12 17.17 54.12 15.54L54.12 15.54Q54.12 13.80 54.46 12.69Q54.81 11.58 55.64 10.87Q56.47 10.16 57.93 9.66L57.93 9.66L60.75 8.70L60.75 6.74Q60.75 5.21 59.74 5.21L59.74 5.21Q58.83 5.21 58.83 6.45L58.83 6.45L58.83 7.59L54.41 7.59Q54.40 7.49 54.40 7.33Q54.40 7.17 54.40 6.97L54.40 6.97Q54.40 4.13 55.74 2.94Q57.08 1.75 59.99 1.75L59.99 1.75Q61.51 1.75 62.71 2.29Q63.92 2.83 64.63 3.89Q65.33 4.94 65.33 6.49L65.33 6.49L65.33 21L60.81 21L60.81 18.74Q60.48 19.93 59.72 20.57Q58.96 21.20 57.98 21.20ZM59.77 17.67L59.77 17.67Q60.33 17.67 60.53 17.20Q60.73 16.73 60.73 16.19L60.73 16.19L60.73 10.88Q59.79 11.26 59.27 11.84Q58.75 12.42 58.75 13.54L58.75 13.54L58.75 15.99Q58.75 17.67 59.77 17.67ZM71.70 21L67.08 21L67.08 1.96L71.70 1.96L71.70 4.08Q72.03 2.97 72.87 2.35Q73.71 1.73 74.98 1.73L74.98 1.73L74.98 5.52Q74.42 5.52 73.65 5.65Q72.87 5.77 72.29 5.98Q71.70 6.18 71.70 6.44L71.70 6.44L71.70 21ZM80.64 21L76.10 21L76.10 1.96L80.54 1.96L80.54 4.17Q80.84 3.00 81.58 2.38Q82.32 1.75 83.74 1.75L83.74 1.75Q84.88 1.75 85.69 2.28Q86.49 2.81 86.82 3.67L86.82 3.67Q87.34 2.73 88.05 2.24Q88.75 1.75 90.06 1.75L90.06 1.75Q91.65 1.75 92.50 2.43Q93.36 3.11 93.70 4.31Q94.03 5.51 94.03 7.09L94.03 7.09L94.03 21L89.50 21L89.50 7.01Q89.50 5.17 88.56 5.17L88.56 5.17Q88.07 5.17 87.80 5.51Q87.53 5.84 87.43 6.34Q87.33 6.83 87.33 7.33L87.33 7.33L87.33 21L82.80 21L82.80 7.01Q82.80 6.41 82.65 5.82Q82.51 5.22 81.91 5.22L81.91 5.22Q81.40 5.22 81.12 5.59Q80.84 5.96 80.74 6.50Q80.64 7.04 80.64 7.56L80.64 7.56L80.64 21ZM101.14 21.20L101.14 21.20Q99.11 21.20 97.91 20.44Q96.70 19.68 96.18 18.25Q95.66 16.81 95.66 14.79L95.66 14.79L95.66 7.14Q95.66 4.48 97.18 3.12Q98.71 1.75 101.37 1.75L101.37 1.75Q106.86 1.75 106.86 7.14L106.86 7.14L106.86 8.52Q106.86 11.03 106.81 11.90L106.81 11.90L100.20 11.90L100.20 15.58Q100.20 16.09 100.27 16.58Q100.33 17.06 100.55 17.38Q100.78 17.70 101.27 17.70L101.27 17.70Q101.98 17.70 102.16 17.08Q102.34 16.47 102.34 15.48L102.34 15.48L102.34 13.65L106.86 13.65L106.86 14.73Q106.86 16.86 106.33 18.30Q105.80 19.74 104.55 20.47Q103.30 21.20 101.14 21.20ZM100.18 7.07L100.18 9.64L102.34 9.64L102.34 7.07Q102.34 6.04 102.08 5.59Q101.83 5.14 101.32 5.14L101.32 5.14Q100.78 5.14 100.48 5.58Q100.18 6.01 100.18 7.07L100.18 7.07ZM113.05 21L108.51 21L108.51 1.96L112.95 1.96L112.95 4.17Q113.25 3.00 113.99 2.38Q114.73 1.75 116.15 1.75L116.15 1.75Q117.29 1.75 118.10 2.28Q118.90 2.81 119.23 3.67L119.23 3.67Q119.75 2.73 120.46 2.24Q121.16 1.75 122.47 1.75L122.47 1.75Q124.06 1.75 124.92 2.43Q125.77 3.11 126.11 4.31Q126.45 5.51 126.45 7.09L126.45 7.09L126.45 21L121.91 21L121.91 7.01Q121.91 5.17 120.97 5.17L120.97 5.17Q120.48 5.17 120.21 5.51Q119.95 5.84 119.84 6.34Q119.74 6.83 119.74 7.33L119.74 7.33L119.74 21L115.21 21L115.21 7.01Q115.21 6.41 115.06 5.82Q114.92 5.22 114.32 5.22L114.32 5.22Q113.81 5.22 113.53 5.59Q113.25 5.96 113.15 6.50Q113.05 7.04 113.05 7.56L113.05 7.56L113.05 21ZM133.55 21.20L133.55 21.20Q131.52 21.20 130.32 20.44Q129.11 19.68 128.59 18.25Q128.07 16.81 128.07 14.79L128.07 14.79L128.07 7.14Q128.07 4.48 129.59 3.12Q131.12 1.75 133.78 1.75L133.78 1.75Q139.27 1.75 139.27 7.14L139.27 7.14L139.27 8.52Q139.27 11.03 139.22 11.90L139.22 11.90L132.62 11.90L132.62 15.58Q132.62 16.09 132.68 16.58Q132.74 17.06 132.96 17.38Q133.19 17.70 133.68 17.70L133.68 17.70Q134.39 17.70 134.57 17.08Q134.75 16.47 134.75 15.48L134.75 15.48L134.75 13.65L139.27 13.65L139.27 14.73Q139.27 16.86 138.74 18.30Q138.21 19.74 136.96 20.47Q135.71 21.20 133.55 21.20ZM132.59 7.07L132.59 9.64L134.75 9.64L134.75 7.07Q134.75 6.04 134.49 5.59Q134.24 5.14 133.73 5.14L133.73 5.14Q133.19 5.14 132.89 5.58Q132.59 6.01 132.59 7.07L132.59 7.07ZM145.46 21L140.92 21L140.92 1.96L145.46 1.96L145.46 4.38Q145.72 3.29 146.41 2.52Q147.10 1.75 148.33 1.75L148.33 1.75Q150.31 1.75 151.21 2.97Q152.10 4.19 152.10 6.31L152.10 6.31L152.10 21L147.62 21L147.62 6.78Q147.62 6.22 147.39 5.75Q147.16 5.27 146.61 5.27L146.61 5.27Q146.08 5.27 145.84 5.63Q145.59 5.99 145.53 6.53Q145.46 7.07 145.46 7.61L145.46 7.61L145.46 21ZM157.79 21.20L157.79 21.20Q155.95 21.20 155.31 20.42Q154.67 19.64 154.67 18.03L154.67 18.03L154.67 6.16L153.38 6.16L153.38 2.69L154.67 2.69L154.67-1.34L159.08-1.34L159.08 2.69L160.37 2.69L160.37 6.16L159.08 6.16L159.08 16.96Q159.08 17.43 159.24 17.62Q159.39 17.81 159.82 17.81L159.82 17.81Q160.13 17.81 160.37 17.76L160.37 17.76L160.37 20.86Q160.21 20.91 159.42 21.06Q158.62 21.20 157.79 21.20Z"/></svg></svg>